<svg id="visual" viewBox="0 0 960 540" width="960" height="540" xmlns="http://www.w3.org/2000/svg" xmlns:xlink="http://www.w3.org/1999/xlink" version="1.1"><rect width="960" height="540" fill="#212529"></rect><g><g transform="translate(515 275)"><path d="M61.1 -22.6C69.7 6.9 60.9 39.3 34.9 61.3C8.9 83.2 -34.2 94.8 -61 77C-87.9 59.1 -98.5 11.8 -85.7 -23.5C-72.8 -58.8 -36.4 -82.1 -5.1 -80.4C26.2 -78.8 52.4 -52.1 61.1 -22.6Z" fill="none" stroke="#138c17" stroke-width="20"></path></g><g transform="translate(243 95)"><path d="M73.8 -20.3C81.9 1 65.3 34 40.5 50.9C15.7 67.8 -17.3 68.5 -38 53.3C-58.6 38 -67 6.8 -58.6 -14.9C-50.2 -36.6 -25.1 -48.8 3.9 -50C32.9 -51.3 65.7 -41.6 73.8 -20.3Z" fill="none" stroke="#138c17" stroke-width="20"></path></g><g transform="translate(910 172)"><path d="M57.7 -21.5C66.8 9.1 60.5 41.9 39.7 57.9C18.8 73.8 -16.7 72.9 -42.9 54.9C-69 36.9 -85.7 1.8 -77 -28.4C-68.3 -58.5 -34.2 -83.8 -4.9 -82.2C24.3 -80.6 48.7 -52.1 57.7 -21.5Z" fill="none" stroke="#138c17" stroke-width="20"></path></g><g transform="translate(291 522)"><path d="M37.7 -10.8C41.9 0.7 33.6 17.7 20.8 26.5C8.1 35.2 -9.1 35.7 -18 28.3C-27 21 -27.7 5.9 -23.3 -5.9C-19 -17.7 -9.5 -26.1 3.6 -27.3C16.7 -28.4 33.5 -22.4 37.7 -10.8Z" fill="none" stroke="#138c17" stroke-width="20"></path></g><g transform="translate(728 504)"><path d="M22.9 -9.4C26.2 2.5 22.8 14.6 15.3 19.8C7.7 25 -4 23.3 -13.5 16.8C-22.9 10.3 -30.2 -0.9 -27.6 -12C-25 -23 -12.5 -33.8 -1.3 -33.4C9.8 -32.9 19.7 -21.3 22.9 -9.4Z" fill="none" stroke="#138c17" stroke-width="20"></path></g><g transform="translate(9 319)"><path d="M80.6 -19.5C90.3 3.7 74.4 42 48 59.7C21.6 77.4 -15.2 74.5 -35.3 57.7C-55.5 40.9 -59 10.3 -50.3 -11.4C-41.7 -33.2 -20.8 -46 7.3 -48.4C35.4 -50.8 70.9 -42.7 80.6 -19.5Z" fill="none" stroke="#138c17" stroke-width="20"></path></g></g></svg>