<svg id="visual" viewBox="0 0 960 540" width="960" height="540" xmlns="http://www.w3.org/2000/svg" xmlns:xlink="http://www.w3.org/1999/xlink" version="1.1"><rect x="0" y="0" width="960" height="540" fill="#212529"></rect><defs><linearGradient id="grad1_0" x1="43.8%" y1="0%" x2="100%" y2="100%"><stop offset="14.444444444444446%" stop-color="#212529" stop-opacity="1"></stop><stop offset="85.55555555555554%" stop-color="#212529" stop-opacity="1"></stop></linearGradient></defs><defs><linearGradient id="grad2_0" x1="0%" y1="0%" x2="56.3%" y2="100%"><stop offset="14.444444444444446%" stop-color="#212529" stop-opacity="1"></stop><stop offset="85.55555555555554%" stop-color="#212529" stop-opacity="1"></stop></linearGradient></defs><g transform="translate(960, 0)"><path d="M0 405C-47.1 385.4 -94.2 365.7 -144.7 349.2C-195.1 332.7 -248.9 319.3 -286.4 286.4C-323.9 253.4 -345.1 201 -362.2 150C-379.2 99 -392.1 49.5 -405 0L0 0Z" fill="#3d7e26"></path></g><g transform="translate(0, 540)"><path d="M0 -405C60.6 -408.2 121.2 -411.4 155 -374.2C188.8 -337 195.7 -259.4 212.8 -212.8C230 -166.3 257.3 -150.8 291 -120.5C324.7 -90.2 364.9 -45.1 405 0L0 0Z" fill="#3d7e26"></path></g></svg>