<svg id="visual" viewBox="0 0 960 540" width="960" height="540" xmlns="http://www.w3.org/2000/svg" xmlns:xlink="http://www.w3.org/1999/xlink" version="1.1"><rect x="0" y="0" width="960" height="540" fill="#212529"></rect><defs><linearGradient id="grad1_0" x1="43.8%" y1="0%" x2="100%" y2="100%"><stop offset="14.444444444444446%" stop-color="#212529" stop-opacity="1"></stop><stop offset="85.55555555555554%" stop-color="#212529" stop-opacity="1"></stop></linearGradient></defs><defs><linearGradient id="grad2_0" x1="0%" y1="0%" x2="56.3%" y2="100%"><stop offset="14.444444444444446%" stop-color="#212529" stop-opacity="1"></stop><stop offset="85.55555555555554%" stop-color="#212529" stop-opacity="1"></stop></linearGradient></defs><g transform="translate(960, 0)"><path d="M0 405C-60.5 406.7 -121 408.5 -155 374.2C-188.9 339.9 -196.3 269.5 -229.8 229.8C-263.3 190.1 -323.1 180.9 -356.6 147.7C-390.2 114.5 -397.6 57.3 -405 0L0 0Z" fill="#3d7e26"></path></g><g transform="translate(0, 540)"><path d="M0 -405C63.9 -410.4 127.7 -415.7 155 -374.2C182.2 -332.6 172.9 -244.1 202.9 -202.9C233 -161.8 302.5 -167.9 342.8 -142C383 -116 394 -58 405 0L0 0Z" fill="#3d7e26"></path></g></svg>