<svg id="visual" viewBox="0 0 960 540" width="960" height="540" xmlns="http://www.w3.org/2000/svg" xmlns:xlink="http://www.w3.org/1999/xlink" version="1.1"><rect x="0" y="0" width="960" height="540" fill="#332D2D"></rect><g transform="translate(500.84046576160614 259.6919755538693)"><path d="M92.8 -138.7C122.5 -125.3 150.4 -103.4 158.7 -75.4C167 -47.4 155.8 -13.3 143.1 15C130.4 43.3 116.2 65.9 103.6 101.4C90.9 137 79.8 185.5 52.5 206.2C25.1 226.8 -18.6 219.4 -55.9 202.8C-93.2 186.1 -124 160.2 -141.2 128.8C-158.4 97.4 -161.8 60.6 -173.8 21C-185.7 -18.6 -206.1 -61 -202.9 -102.9C-199.7 -144.7 -172.8 -185.9 -135.1 -195.7C-97.3 -205.4 -48.7 -183.7 -8.6 -170.4C31.5 -157.1 63.1 -152.1 92.8 -138.7" fill="none" stroke="#329f16" stroke-width="6"></path></g></svg>