<svg id="visual" viewBox="0 0 960 540" width="960" height="540" xmlns="http://www.w3.org/2000/svg" xmlns:xlink="http://www.w3.org/1999/xlink" version="1.1"><path d="M0 33L10.7 31.3C21.3 29.7 42.7 26.3 64 22.8C85.3 19.3 106.7 15.7 128 21C149.3 26.3 170.7 40.7 192 45.2C213.3 49.7 234.7 44.3 256 39.8C277.3 35.3 298.7 31.7 320 32.5C341.3 33.3 362.7 38.7 384 43.2C405.3 47.7 426.7 51.3 448 49.5C469.3 47.7 490.7 40.3 512 38.5C533.3 36.7 554.7 40.3 576 46.7C597.3 53 618.7 62 640 59.3C661.3 56.7 682.7 42.3 704 39.7C725.3 37 746.7 46 768 48.7C789.3 51.3 810.7 47.7 832 45.8C853.3 44 874.7 44 896 46.7C917.3 49.3 938.7 54.7 949.3 57.3L960 60L960 0L949.3 0C938.7 0 917.3 0 896 0C874.7 0 853.3 0 832 0C810.7 0 789.3 0 768 0C746.7 0 725.3 0 704 0C682.7 0 661.3 0 640 0C618.7 0 597.3 0 576 0C554.7 0 533.3 0 512 0C490.7 0 469.3 0 448 0C426.7 0 405.3 0 384 0C362.7 0 341.3 0 320 0C298.7 0 277.3 0 256 0C234.7 0 213.3 0 192 0C170.7 0 149.3 0 128 0C106.7 0 85.3 0 64 0C42.7 0 21.3 0 10.7 0L0 0Z" fill="#212529"></path><path d="M0 50L10.7 47.2C21.3 44.3 42.7 38.7 64 36.8C85.3 35 106.7 37 128 43.3C149.3 49.7 170.7 60.3 192 65.7C213.3 71 234.7 71 256 67.5C277.3 64 298.7 57 320 56.2C341.3 55.3 362.7 60.7 384 65.2C405.3 69.7 426.7 73.3 448 76C469.3 78.7 490.7 80.3 512 75.8C533.3 71.3 554.7 60.7 576 59.8C597.3 59 618.7 68 640 71.5C661.3 75 682.7 73 704 76.5C725.3 80 746.7 89 768 85.5C789.3 82 810.7 66 832 64.2C853.3 62.3 874.7 74.7 896 83.7C917.3 92.7 938.7 98.3 949.3 101.2L960 104L960 58L949.3 55.3C938.7 52.7 917.3 47.3 896 44.7C874.7 42 853.3 42 832 43.8C810.7 45.7 789.3 49.3 768 46.7C746.7 44 725.3 35 704 37.7C682.7 40.3 661.3 54.7 640 57.3C618.7 60 597.3 51 576 44.7C554.7 38.3 533.3 34.7 512 36.5C490.7 38.3 469.3 45.7 448 47.5C426.7 49.3 405.3 45.7 384 41.2C362.7 36.7 341.3 31.3 320 30.5C298.7 29.7 277.3 33.3 256 37.8C234.7 42.3 213.3 47.7 192 43.2C170.7 38.7 149.3 24.3 128 19C106.7 13.7 85.3 17.3 64 20.8C42.7 24.3 21.3 27.7 10.7 29.3L0 31Z" fill="#1c3c46"></path><path d="M0 141L10.7 127.5C21.3 114 42.7 87 64 73.5C85.3 60 106.7 60 128 75.3C149.3 90.7 170.7 121.3 192 127.7C213.3 134 234.7 116 256 113.3C277.3 110.7 298.7 123.3 320 123.3C341.3 123.3 362.7 110.7 384 103.5C405.3 96.3 426.7 94.7 448 99.2C469.3 103.7 490.7 114.3 512 117C533.3 119.7 554.7 114.3 576 116.2C597.3 118 618.7 127 640 126.2C661.3 125.3 682.7 114.7 704 118.3C725.3 122 746.7 140 768 141.7C789.3 143.3 810.7 128.7 832 127.7C853.3 126.7 874.7 139.3 896 149.3C917.3 159.3 938.7 166.7 949.3 170.3L960 174L960 102L949.3 99.2C938.7 96.3 917.3 90.7 896 81.7C874.7 72.7 853.3 60.3 832 62.2C810.7 64 789.3 80 768 83.5C746.7 87 725.3 78 704 74.5C682.7 71 661.3 73 640 69.5C618.7 66 597.3 57 576 57.8C554.7 58.7 533.3 69.3 512 73.8C490.7 78.3 469.3 76.7 448 74C426.7 71.3 405.3 67.7 384 63.2C362.7 58.7 341.3 53.3 320 54.2C298.7 55 277.3 62 256 65.5C234.7 69 213.3 69 192 63.7C170.7 58.3 149.3 47.7 128 41.3C106.7 35 85.3 33 64 34.8C42.7 36.7 21.3 42.3 10.7 45.2L0 48Z" fill="#005657"></path><path d="M0 152L10.7 139.5C21.3 127 42.7 102 64 88.5C85.3 75 106.7 73 128 88.2C149.3 103.3 170.7 135.7 192 149.2C213.3 162.7 234.7 157.3 256 157.3C277.3 157.3 298.7 162.7 320 158.2C341.3 153.7 362.7 139.3 384 127.7C405.3 116 426.7 107 448 111.5C469.3 116 490.7 134 512 138.5C533.3 143 554.7 134 576 137.7C597.3 141.3 618.7 157.7 640 163.2C661.3 168.7 682.7 163.3 704 168.7C725.3 174 746.7 190 768 191.7C789.3 193.3 810.7 180.7 832 175.3C853.3 170 874.7 172 896 177.5C917.3 183 938.7 192 949.3 196.5L960 201L960 172L949.3 168.3C938.7 164.7 917.3 157.3 896 147.3C874.7 137.3 853.3 124.7 832 125.7C810.7 126.7 789.3 141.3 768 139.7C746.7 138 725.3 120 704 116.3C682.7 112.7 661.3 123.3 640 124.2C618.7 125 597.3 116 576 114.2C554.7 112.3 533.3 117.7 512 115C490.7 112.3 469.3 101.7 448 97.2C426.7 92.7 405.3 94.3 384 101.5C362.7 108.7 341.3 121.3 320 121.3C298.7 121.3 277.3 108.7 256 111.3C234.7 114 213.3 132 192 125.7C170.7 119.3 149.3 88.7 128 73.3C106.7 58 85.3 58 64 71.5C42.7 85 21.3 112 10.7 125.5L0 139Z" fill="#006f51"></path><path d="M0 190L10.7 184.7C21.3 179.3 42.7 168.7 64 161.5C85.3 154.3 106.7 150.7 128 156.8C149.3 163 170.7 179 192 182.5C213.3 186 234.7 177 256 176.2C277.3 175.3 298.7 182.7 320 196.2C341.3 209.7 362.7 229.3 384 217.7C405.3 206 426.7 163 448 155C469.3 147 490.7 174 512 183.8C533.3 193.7 554.7 186.3 576 188.2C597.3 190 618.7 201 640 202C661.3 203 682.7 194 704 199.3C725.3 204.7 746.7 224.3 768 228.8C789.3 233.3 810.7 222.7 832 225.3C853.3 228 874.7 244 896 245.7C917.3 247.3 938.7 234.7 949.3 228.3L960 222L960 199L949.3 194.5C938.7 190 917.3 181 896 175.5C874.7 170 853.3 168 832 173.3C810.7 178.7 789.3 191.3 768 189.7C746.7 188 725.3 172 704 166.7C682.7 161.3 661.3 166.7 640 161.2C618.7 155.7 597.3 139.3 576 135.7C554.7 132 533.3 141 512 136.5C490.7 132 469.3 114 448 109.5C426.7 105 405.3 114 384 125.7C362.7 137.3 341.3 151.7 320 156.2C298.7 160.7 277.3 155.3 256 155.3C234.7 155.3 213.3 160.7 192 147.2C170.7 133.7 149.3 101.3 128 86.2C106.7 71 85.3 73 64 86.5C42.7 100 21.3 125 10.7 137.5L0 150Z" fill="#3f842f"></path><path d="M0 249L10.7 256.3C21.3 263.7 42.7 278.3 64 276.7C85.3 275 106.7 257 128 260.5C149.3 264 170.7 289 192 298.8C213.3 308.7 234.7 303.3 256 292.5C277.3 281.7 298.7 265.3 320 267.2C341.3 269 362.7 289 384 299C405.3 309 426.7 309 448 301.8C469.3 294.7 490.7 280.3 512 280.3C533.3 280.3 554.7 294.7 576 311.7C597.3 328.7 618.7 348.3 640 343.8C661.3 339.3 682.7 310.7 704 316.2C725.3 321.7 746.7 361.3 768 377.5C789.3 393.7 810.7 386.3 832 372.8C853.3 359.3 874.7 339.7 896 323.5C917.3 307.3 938.7 294.7 949.3 288.3L960 282L960 220L949.3 226.3C938.7 232.7 917.3 245.3 896 243.7C874.7 242 853.3 226 832 223.3C810.7 220.7 789.3 231.3 768 226.8C746.7 222.3 725.3 202.7 704 197.3C682.7 192 661.3 201 640 200C618.7 199 597.3 188 576 186.2C554.7 184.3 533.3 191.7 512 181.8C490.7 172 469.3 145 448 153C426.7 161 405.3 204 384 215.7C362.7 227.3 341.3 207.7 320 194.2C298.7 180.7 277.3 173.3 256 174.2C234.7 175 213.3 184 192 180.5C170.7 177 149.3 161 128 154.8C106.7 148.7 85.3 152.3 64 159.5C42.7 166.7 21.3 177.3 10.7 182.7L0 188Z" fill="#3f842f"></path><path d="M0 287L10.7 292.5C21.3 298 42.7 309 64 307.2C85.3 305.3 106.7 290.7 128 290.7C149.3 290.7 170.7 305.3 192 313.5C213.3 321.7 234.7 323.3 256 312.5C277.3 301.7 298.7 278.3 320 280.2C341.3 282 362.7 309 384 323.3C405.3 337.7 426.7 339.3 448 331.2C469.3 323 490.7 305 512 306C533.3 307 554.7 327 576 346C597.3 365 618.7 383 640 374C661.3 365 682.7 329 704 334.3C725.3 339.7 746.7 386.3 768 407C789.3 427.7 810.7 422.3 832 410.7C853.3 399 874.7 381 896 362C917.3 343 938.7 323 949.3 313L960 303L960 280L949.3 286.3C938.7 292.7 917.3 305.3 896 321.5C874.7 337.7 853.3 357.3 832 370.8C810.7 384.3 789.3 391.7 768 375.5C746.7 359.3 725.3 319.7 704 314.2C682.7 308.7 661.3 337.3 640 341.8C618.7 346.3 597.3 326.7 576 309.7C554.7 292.7 533.3 278.3 512 278.3C490.7 278.3 469.3 292.7 448 299.8C426.7 307 405.3 307 384 297C362.7 287 341.3 267 320 265.2C298.7 263.3 277.3 279.7 256 290.5C234.7 301.3 213.3 306.7 192 296.8C170.7 287 149.3 262 128 258.5C106.7 255 85.3 273 64 274.7C42.7 276.3 21.3 261.7 10.7 254.3L0 247Z" fill="#3f842f"></path><path d="M0 476L10.7 478.7C21.3 481.3 42.7 486.7 64 487.7C85.3 488.7 106.7 485.3 128 475.5C149.3 465.7 170.7 449.3 192 442C213.3 434.7 234.7 436.3 256 437.2C277.3 438 298.7 438 320 442.5C341.3 447 362.7 456 384 451.5C405.3 447 426.7 429 448 430.8C469.3 432.7 490.7 454.3 512 465.2C533.3 476 554.7 476 576 474.2C597.3 472.3 618.7 468.7 640 462.3C661.3 456 682.7 447 704 445.3C725.3 443.7 746.7 449.3 768 452.2C789.3 455 810.7 455 832 455.8C853.3 456.7 874.7 458.3 896 459.2C917.3 460 938.7 460 949.3 460L960 460L960 301L949.3 311C938.7 321 917.3 341 896 360C874.7 379 853.3 397 832 408.7C810.7 420.3 789.3 425.7 768 405C746.7 384.3 725.3 337.7 704 332.3C682.7 327 661.3 363 640 372C618.7 381 597.3 363 576 344C554.7 325 533.3 305 512 304C490.7 303 469.3 321 448 329.2C426.7 337.3 405.3 335.7 384 321.3C362.7 307 341.3 280 320 278.2C298.7 276.3 277.3 299.7 256 310.5C234.7 321.3 213.3 319.7 192 311.5C170.7 303.3 149.3 288.7 128 288.7C106.7 288.7 85.3 303.3 64 305.2C42.7 307 21.3 296 10.7 290.5L0 285Z" fill="#006f51"></path><path d="M0 492L10.7 493.8C21.3 495.7 42.7 499.3 64 502.2C85.3 505 106.7 507 128 499.8C149.3 492.7 170.7 476.3 192 470C213.3 463.7 234.7 467.3 256 465.5C277.3 463.7 298.7 456.3 320 456.3C341.3 456.3 362.7 463.7 384 463.7C405.3 463.7 426.7 456.3 448 458.2C469.3 460 490.7 471 512 478.2C533.3 485.3 554.7 488.7 576 486.8C597.3 485 618.7 478 640 474.5C661.3 471 682.7 471 704 472.8C725.3 474.7 746.7 478.3 768 476.5C789.3 474.7 810.7 467.3 832 465.5C853.3 463.7 874.7 467.3 896 469.2C917.3 471 938.7 471 949.3 471L960 471L960 458L949.3 458C938.7 458 917.3 458 896 457.2C874.7 456.3 853.3 454.7 832 453.8C810.7 453 789.3 453 768 450.2C746.7 447.3 725.3 441.7 704 443.3C682.7 445 661.3 454 640 460.3C618.7 466.7 597.3 470.3 576 472.2C554.7 474 533.3 474 512 463.2C490.7 452.3 469.3 430.7 448 428.8C426.7 427 405.3 445 384 449.5C362.7 454 341.3 445 320 440.5C298.7 436 277.3 436 256 435.2C234.7 434.3 213.3 432.7 192 440C170.7 447.3 149.3 463.7 128 473.5C106.7 483.3 85.3 486.7 64 485.7C42.7 484.7 21.3 479.3 10.7 476.7L0 474Z" fill="#005657"></path><path d="M0 503L10.7 504.8C21.3 506.7 42.7 510.3 64 513C85.3 515.7 106.7 517.3 128 512C149.3 506.7 170.7 494.3 192 494.3C213.3 494.3 234.7 506.7 256 509.3C277.3 512 298.7 505 320 504.2C341.3 503.3 362.7 508.7 384 507.7C405.3 506.7 426.7 499.3 448 500.2C469.3 501 490.7 510 512 516.3C533.3 522.7 554.7 526.3 576 524.7C597.3 523 618.7 516 640 511.5C661.3 507 682.7 505 704 503.2C725.3 501.3 746.7 499.7 768 498.8C789.3 498 810.7 498 832 498C853.3 498 874.7 498 896 497C917.3 496 938.7 494 949.3 493L960 492L960 469L949.3 469C938.7 469 917.3 469 896 467.2C874.7 465.3 853.3 461.7 832 463.5C810.7 465.3 789.3 472.7 768 474.5C746.7 476.3 725.3 472.7 704 470.8C682.7 469 661.3 469 640 472.5C618.7 476 597.3 483 576 484.8C554.7 486.7 533.3 483.3 512 476.2C490.7 469 469.3 458 448 456.2C426.7 454.3 405.3 461.7 384 461.7C362.7 461.7 341.3 454.3 320 454.3C298.7 454.3 277.3 461.7 256 463.5C234.7 465.3 213.3 461.7 192 468C170.7 474.3 149.3 490.7 128 497.8C106.7 505 85.3 503 64 500.2C42.7 497.3 21.3 493.7 10.7 491.8L0 490Z" fill="#1c3c46"></path><path d="M0 541L10.7 541C21.3 541 42.7 541 64 541C85.3 541 106.7 541 128 541C149.3 541 170.7 541 192 541C213.3 541 234.7 541 256 541C277.3 541 298.7 541 320 541C341.3 541 362.7 541 384 541C405.3 541 426.7 541 448 541C469.3 541 490.7 541 512 541C533.3 541 554.7 541 576 541C597.3 541 618.7 541 640 541C661.3 541 682.7 541 704 541C725.3 541 746.7 541 768 541C789.3 541 810.7 541 832 541C853.3 541 874.7 541 896 541C917.3 541 938.7 541 949.3 541L960 541L960 490L949.3 491C938.7 492 917.3 494 896 495C874.7 496 853.3 496 832 496C810.7 496 789.3 496 768 496.8C746.7 497.7 725.3 499.3 704 501.2C682.7 503 661.3 505 640 509.5C618.7 514 597.3 521 576 522.7C554.7 524.3 533.3 520.7 512 514.3C490.7 508 469.3 499 448 498.2C426.7 497.3 405.3 504.7 384 505.7C362.7 506.7 341.3 501.3 320 502.2C298.7 503 277.3 510 256 507.3C234.7 504.7 213.3 492.3 192 492.3C170.7 492.3 149.3 504.7 128 510C106.7 515.3 85.3 513.7 64 511C42.7 508.3 21.3 504.7 10.7 502.8L0 501Z" fill="#212529"></path></svg>